<svg id="Camada_1" data-name="Camada 1" xmlns="http://www.w3.org/2000/svg" viewBox="0 0 50 7.6"><defs><style>.cls-1{fill:#AFC5D8;}</style></defs><title>logo-cinza</title><rect class="cls-1" y="2.81" width="1.27" height="4.64"/><rect class="cls-1" x="4.34" width="1.27" height="7.47"/><circle class="cls-1" cx="2.66" cy="3.51" r="0.86"/><polygon class="cls-1" points="9.07 2.84 7.45 2.84 6.07 5.23 7.71 7.46 9.26 7.46 7.69 5.18 9.07 2.84"/><path class="cls-1" d="M12.75,3.23h1.36V7.45H12.75V6.94a1.41,1.41,0,0,1-1.25.66A2,2,0,0,1,9.91,7,2.24,2.24,0,0,1,9.3,5.37,2.39,2.39,0,0,1,10,3.67a2,2,0,0,1,1.47-.58,1.6,1.6,0,0,1,1.33.62ZM11,4.57a1.06,1.06,0,0,0-.31.76,1.1,1.1,0,0,0,.28.76,1.13,1.13,0,0,0,.81.33,1,1,0,0,0,.71-.29,1.08,1.08,0,0,0,.33-.8,1.06,1.06,0,0,0-.31-.77,1.15,1.15,0,0,0-.76-.3A1.09,1.09,0,0,0,11,4.57Z"/><path class="cls-1" d="M14.81,3.23h1.37v.5a1.33,1.33,0,0,1,1.18-.6,1.55,1.55,0,0,1,.79.19,1.19,1.19,0,0,1,.51.59,1.63,1.63,0,0,1,1.44-.78,1.71,1.71,0,0,1,1.19.4,1.71,1.71,0,0,1,.43,1.26V7.45H20.36V5.32a1.41,1.41,0,0,0-.18-.83.62.62,0,0,0-.49-.23.65.65,0,0,0-.53.26,1.36,1.36,0,0,0-.21.83v2.1H17.59V5.26a1.1,1.1,0,0,0-.22-.82.59.59,0,0,0-.46-.18.63.63,0,0,0-.47.18,1.23,1.23,0,0,0-.26.86V7.45H14.81Z"/><path class="cls-1" d="M26.76,5.58H23.61a1.15,1.15,0,0,0,.25.72.92.92,0,0,0,.71.26,1.05,1.05,0,0,0,.54-.12.83.83,0,0,0,.3-.35l1.28.13a1.81,1.81,0,0,1-.81,1.06,2.47,2.47,0,0,1-1.33.32A2.2,2.2,0,0,1,22.86,7a2.27,2.27,0,0,1-.63-1.63,2.37,2.37,0,0,1,.64-1.66,2.48,2.48,0,0,1,3.29,0,2.37,2.37,0,0,1,.6,1.71ZM25.5,4.77a1,1,0,0,0-.27-.5A.93.93,0,0,0,24.58,4a.94.94,0,0,0-.69.27,1,1,0,0,0-.23.46Z"/><path class="cls-1" d="M27.29.55h1.37V3.73a1.74,1.74,0,0,1,.51-.43,1.9,1.9,0,0,1,2,.25,1.65,1.65,0,0,1,.42,1.23V7.45H30.24V5.29A1.14,1.14,0,0,0,30,4.44a.77.77,0,0,0-.53-.18.79.79,0,0,0-.54.2,1.23,1.23,0,0,0-.28.88V7.45H27.29Z"/><path class="cls-1" d="M35.71,3.23h1.36V7.45H35.71V6.94a1.41,1.41,0,0,1-1.25.66A2,2,0,0,1,32.88,7a2.21,2.21,0,0,1-.62-1.58,2.39,2.39,0,0,1,.66-1.7,2,2,0,0,1,1.46-.58,1.6,1.6,0,0,1,1.33.62ZM34,4.57a1.06,1.06,0,0,0-.32.76,1.06,1.06,0,0,0,1.09,1.09,1,1,0,0,0,.71-.29,1.08,1.08,0,0,0,.33-.8,1.06,1.06,0,0,0-.31-.77,1.14,1.14,0,0,0-.75-.3A1.07,1.07,0,0,0,34,4.57Z"/><path class="cls-1" d="M37.78,3.23h1.36v.5a1.33,1.33,0,0,1,1.18-.6,1.61,1.61,0,0,1,.8.19,1.19,1.19,0,0,1,.51.59,1.45,1.45,0,0,1,.54-.54,1.6,1.6,0,0,1,.9-.24,1.66,1.66,0,0,1,1.18.4,1.68,1.68,0,0,1,.44,1.26V7.45H43.32V5.32a1.41,1.41,0,0,0-.18-.83.62.62,0,0,0-.49-.23.65.65,0,0,0-.53.26,1.36,1.36,0,0,0-.21.83v2.1H40.55V5.26a1.1,1.1,0,0,0-.22-.82.58.58,0,0,0-.45-.18.67.67,0,0,0-.48.18,1.28,1.28,0,0,0-.26.86V7.45H37.78Z"/><path class="cls-1" d="M48.64,3.23H50V7.45H48.64V6.94a1.41,1.41,0,0,1-1.25.66A2,2,0,0,1,45.81,7a2.21,2.21,0,0,1-.62-1.58,2.43,2.43,0,0,1,.65-1.7,2.05,2.05,0,0,1,1.47-.58,1.6,1.6,0,0,1,1.33.62ZM46.9,4.57a1.11,1.11,0,0,0,0,1.52,1.11,1.11,0,0,0,.8.33,1,1,0,0,0,.71-.29,1.08,1.08,0,0,0,.33-.8,1.06,1.06,0,0,0-.31-.77,1.15,1.15,0,0,0-.76-.3A1.09,1.09,0,0,0,46.9,4.57Z"/></svg>
